<svg width="31" height="32" viewBox="0 0 31 32" fill="none" xmlns="http://www.w3.org/2000/svg">
<g clip-path="url(#clip0_68_1571)">
<path d="M20.7581 24.0074L19.1033 27.5313C18.5726 28.6614 17.932 29.7229 17.1977 30.7017L15.6201 25.7553L17.2306 22.2717C17.5539 21.5715 18.2181 21.151 18.9204 21.12C19.2316 21.1062 19.5505 21.1686 19.8502 21.3178C20.8229 21.8007 21.2298 23.0041 20.7581 24.0074Z" fill="url(#paint0_linear_68_1571)"/>
<path d="M23.9444 23.1226L21.7969 26.3502C20.5636 28.203 19.0173 29.7824 17.2509 31.0266L16.5252 26.6007C17.1717 26.0315 17.7464 25.3714 18.231 24.6332L20.2914 21.4956L20.7088 20.8598C21.3171 19.9333 22.542 19.692 23.4372 20.3228C24.3287 20.951 24.5564 22.2037 23.9444 23.1226Z" fill="url(#paint1_linear_68_1571)"/>
<path d="M26.5603 19.9412C25.7222 19.2314 24.4814 19.3605 23.7967 20.2285L21.0078 23.7621C19.9226 25.1378 18.5072 26.1718 16.922 26.7804L17.2584 31.1263C20.0237 30.0196 22.4955 28.1957 24.4139 25.7964L26.8277 22.7764C27.5151 21.9166 27.3953 20.6477 26.5603 19.9412Z" fill="url(#paint2_linear_68_1571)"/>
<path d="M29.9023 20.277C29.1217 19.5005 27.8748 19.5269 27.1254 20.3358L24.0727 23.6283C23.0205 24.7638 21.7306 25.6099 20.319 26.1193C20.5123 25.7384 20.5823 25.2906 20.4829 24.8435C20.4804 24.8321 20.4712 24.7909 20.4712 24.7909C20.2327 23.8007 19.267 23.1867 18.2962 23.417L17.1218 23.6957C16.0103 23.9594 14.8746 24.057 13.7488 23.9911C13.0649 23.9511 12.3923 23.7885 11.7627 23.5098C11.1435 23.2358 10.5451 22.9072 9.97447 22.5261C8.657 21.6457 7.14071 21.1983 5.61753 21.1983C5.25741 21.1983 4.61224 21.358 3.89865 21.5764C1.88147 22.1935 0.5 24.1121 0.5 26.2859V26.4146C0.5 29.2233 2.70347 31.5003 5.42153 31.5003H10.1151L15.0671 31.4116C19.6922 31.3293 24.0969 29.3594 27.3109 25.9367L29.9501 23.1251C30.7017 22.3249 30.6802 21.05 29.9023 20.277Z" fill="url(#paint3_linear_68_1571)"/>
<path d="M20.4712 24.7911C20.2326 23.8008 19.2669 23.1868 18.2961 23.4172L17.1217 23.6958C14.7947 24.2479 12.3619 24.0724 10.1352 23.1916C10.1096 23.1815 10.0839 23.1715 10.0583 23.1616C7.16721 22.053 5.13397 26.1338 7.68586 27.9227L7.9668 28.1197L10.4648 28.1794C12.9368 28.2385 15.4063 27.9792 17.8163 27.4074L19.084 27.1067C20.0644 26.874 20.7079 25.8568 20.4827 24.8437C20.4803 24.8322 20.4712 24.7911 20.4712 24.7911Z" fill="url(#paint4_linear_68_1571)"/>
<path d="M0.502824 26.2739C0.501529 26.3208 0.5 26.3676 0.5 26.4147C0.5 29.2234 2.70347 31.5003 5.42153 31.5003H10.1151L15.0671 31.4115C19.5379 31.332 23.8026 29.4884 26.9852 26.2739H0.502824Z" fill="url(#paint5_linear_68_1571)"/>
<path d="M5.58654 13.5023C7.6583 18.1813 11.4125 20.1117 14.7722 19.6213C15.0245 19.5844 15.2674 19.5347 15.5001 19.4728C14.9918 15.8283 12.261 12.4429 7.58707 11.5609C6.75001 11.403 5.95813 11.3756 5.22395 11.4523C5.04795 11.4707 4.95389 11.6257 5.00236 11.8173C5.14207 12.3694 5.33448 12.9332 5.58654 13.5023Z" fill="url(#paint6_linear_68_1571)"/>
<path d="M7.26405 12.0848C6.50422 11.8016 5.8054 11.6232 5.17422 11.5328C5.02293 11.5112 4.96587 11.6062 5.03981 11.7565C5.25287 12.1896 5.5141 12.6418 5.82846 13.1099C8.41252 16.958 12.0209 19.1249 14.8862 19.4363C15.1014 19.4597 15.3061 19.4717 15.5 19.4727C14.4565 16.6964 11.5068 13.6661 7.26405 12.0848Z" fill="url(#paint7_linear_68_1571)"/>
<path d="M7.587 11.5609C6.74994 11.403 5.95806 11.3756 5.22388 11.4523C5.14941 11.46 5.09082 11.4933 5.05029 11.5424L15.5 19.4728C14.9918 15.8283 12.2609 12.4429 7.587 11.5609Z" fill="url(#paint8_linear_68_1571)"/>
<path d="M11.2241 12.9468L9.1026 18.0961C10.8713 19.4078 12.8841 19.8969 14.7722 19.6213C15.0246 19.5844 15.2674 19.5347 15.5001 19.4728C15.1424 16.9086 13.6847 14.4728 11.2241 12.9468Z" fill="url(#paint9_linear_68_1571)"/>
<path d="M25.4135 13.5023C23.3417 18.1813 19.5875 20.1117 16.2278 19.6213C15.9755 19.5844 15.7326 19.5347 15.5 19.4728C16.0082 15.8283 18.7391 12.4429 23.413 11.5609C24.2501 11.403 25.0419 11.3756 25.7761 11.4523C25.9521 11.4707 26.0462 11.6257 25.9977 11.8173C25.8579 12.3694 25.6655 12.9332 25.4135 13.5023Z" fill="url(#paint10_linear_68_1571)"/>
<path d="M23.7359 12.0848C24.4958 11.8016 25.1946 11.6232 25.8258 11.5328C25.9771 11.5112 26.0341 11.6062 25.9602 11.7565C25.7471 12.1896 25.4859 12.6418 25.1715 13.1099C22.5875 16.958 18.9791 19.1249 16.1138 19.4363C15.8986 19.4597 15.6938 19.4717 15.5 19.4727C16.5435 16.6964 19.4932 13.6661 23.7359 12.0848Z" fill="url(#paint11_linear_68_1571)"/>
<path d="M23.413 11.5609C24.2501 11.403 25.0419 11.3756 25.7761 11.4523C25.8506 11.46 25.9092 11.4933 25.9497 11.5424L15.5 19.4728C16.0082 15.8283 18.7391 12.4429 23.413 11.5609Z" fill="url(#paint12_linear_68_1571)"/>
<path d="M19.7759 12.9468L21.8974 18.0961C20.1287 19.4078 18.1159 19.8969 16.2278 19.6213C15.9754 19.5844 15.7326 19.5347 15.5 19.4728C15.8576 16.9086 17.3154 14.4728 19.7759 12.9468V12.9468Z" fill="url(#paint13_linear_68_1571)"/>
<path d="M11.9152 14.2415C11.9152 15.937 12.3234 17.2779 13.0326 18.4024C14.1923 20.2411 16.8076 20.2411 17.9673 18.4024C18.6765 17.2779 19.0847 15.937 19.0847 14.2415C19.0847 11.3093 17.8639 7.97356 15.9762 6.22596C15.7056 5.97546 15.2942 5.97546 15.0236 6.22596C13.136 7.97356 11.9152 11.3093 11.9152 14.2415Z" fill="url(#paint14_linear_68_1571)"/>
<path d="M13.2321 14.2415C13.2321 15.937 13.4904 17.2779 13.9391 18.4024C14.6727 20.2411 16.3273 20.2411 17.061 18.4024C17.5097 17.2779 17.7679 15.937 17.7679 14.2415C17.7679 11.3093 16.9956 7.97356 15.8014 6.22596C15.6302 5.97546 15.3699 5.97546 15.1987 6.22596C14.0044 7.97356 13.2321 11.3093 13.2321 14.2415Z" fill="url(#paint15_linear_68_1571)"/>
<path d="M17.9674 18.4024C18.6766 17.2779 19.0848 15.9371 19.0848 14.2415C19.0848 11.3093 17.864 7.97358 15.9763 6.22597C15.841 6.10069 15.6705 6.03809 15.5 6.03809V19.7814C16.4438 19.7814 17.3875 19.3218 17.9674 18.4024Z" fill="url(#paint16_linear_68_1571)"/>
<path d="M18.7563 4.76617C18.2085 4.53239 17.9476 3.88395 18.1739 3.3178L19.0256 1.1861C19.2518 0.61995 19.8793 0.350493 20.4272 0.584209C20.9751 0.817925 21.2359 1.46643 21.0097 2.03258L20.158 4.16428C19.9318 4.73043 19.3042 4.99995 18.7563 4.76617Z" fill="url(#paint17_linear_68_1571)"/>
<path d="M3.56568 7.82479C3.79192 7.25865 4.41945 6.98913 4.96733 7.22291L7.03027 8.103C7.57816 8.33672 7.83898 8.98523 7.61274 9.55137C7.38651 10.1175 6.75898 10.387 6.2111 10.1533L4.14816 9.27316C3.60027 9.03939 3.33951 8.39094 3.56568 7.82479Z" fill="url(#paint18_linear_68_1571)"/>
<path d="M23.3797 9.53278C23.1522 8.96718 23.4116 8.31807 23.9589 8.08301L26.0199 7.19799C26.5672 6.96294 27.1954 7.23094 27.4229 7.79654C27.6503 8.36213 27.391 9.01125 26.8436 9.2463L24.7827 10.1313C24.2353 10.3664 23.6072 10.0984 23.3797 9.53278Z" fill="url(#paint19_linear_68_1571)"/>
<path d="M10.5453 0.595942C11.0927 0.360889 11.7208 0.628887 11.9483 1.19449L12.8048 3.32412C13.0322 3.88972 12.7729 4.53884 12.2255 4.77389C11.6782 5.00894 11.05 4.74095 10.8225 4.17535L9.96607 2.04571C9.73859 1.48011 9.99789 0.830995 10.5453 0.595942Z" fill="url(#paint20_linear_68_1571)"/>
</g>
<defs>
<linearGradient id="paint0_linear_68_1571" x1="16.0021" y1="24.055" x2="17.7986" y2="25.3462" gradientUnits="userSpaceOnUse">
<stop stop-color="#FFEEE6"/>
<stop offset="1" stop-color="#FFB09E"/>
</linearGradient>
<linearGradient id="paint1_linear_68_1571" x1="18.2319" y1="23.4542" x2="19.8229" y2="25.0058" gradientUnits="userSpaceOnUse">
<stop stop-color="#FFEEE6"/>
<stop offset="1" stop-color="#FFB09E"/>
</linearGradient>
<linearGradient id="paint2_linear_68_1571" x1="20.2033" y1="23.3692" x2="21.6566" y2="25.0599" gradientUnits="userSpaceOnUse">
<stop stop-color="#FFEEE6"/>
<stop offset="1" stop-color="#FFB09E"/>
</linearGradient>
<linearGradient id="paint3_linear_68_1571" x1="13.2049" y1="16.9814" x2="18.0427" y2="31.4578" gradientUnits="userSpaceOnUse">
<stop stop-color="#FFEEE6"/>
<stop offset="1" stop-color="#FFB09E"/>
</linearGradient>
<linearGradient id="paint4_linear_68_1571" x1="14.0065" y1="26.2066" x2="18.4043" y2="31.231" gradientUnits="userSpaceOnUse">
<stop stop-color="#FFDECF" stop-opacity="0"/>
<stop offset="1" stop-color="white"/>
</linearGradient>
<linearGradient id="paint5_linear_68_1571" x1="13.7426" y1="28.4778" x2="13.7426" y2="31.6685" gradientUnits="userSpaceOnUse">
<stop stop-color="#F89580" stop-opacity="0"/>
<stop offset="0.9972" stop-color="#C5715A"/>
</linearGradient>
<linearGradient id="paint6_linear_68_1571" x1="5.00686" y1="12.8198" x2="16.9555" y2="18.6517" gradientUnits="userSpaceOnUse">
<stop stop-color="#A2E62E"/>
<stop offset="0.1232" stop-color="#97DF30"/>
<stop offset="0.3396" stop-color="#7ACB36"/>
<stop offset="0.6236" stop-color="#4AAC3F"/>
<stop offset="0.9613" stop-color="#09804C"/>
<stop offset="1" stop-color="#017B4E"/>
</linearGradient>
<linearGradient id="paint7_linear_68_1571" x1="9.86687" y1="13.8955" x2="12.1478" y2="23.6" gradientUnits="userSpaceOnUse">
<stop stop-color="#017B4E" stop-opacity="0"/>
<stop offset="0.477" stop-color="#01754A" stop-opacity="0.477"/>
<stop offset="1" stop-color="#026841"/>
</linearGradient>
<linearGradient id="paint8_linear_68_1571" x1="10.1203" y1="13.5457" x2="10.5779" y2="19.6447" gradientUnits="userSpaceOnUse">
<stop stop-color="#017B4E" stop-opacity="0"/>
<stop offset="0.477" stop-color="#01754A" stop-opacity="0.477"/>
<stop offset="1" stop-color="#026841"/>
</linearGradient>
<linearGradient id="paint9_linear_68_1571" x1="10.9704" y1="15.9381" x2="14.6895" y2="17.6706" gradientUnits="userSpaceOnUse">
<stop stop-color="#017B4E" stop-opacity="0"/>
<stop offset="0.8532" stop-color="#026B43" stop-opacity="0.853"/>
<stop offset="1" stop-color="#026841"/>
</linearGradient>
<linearGradient id="paint10_linear_68_1571" x1="25.9964" y1="12.8255" x2="14.0477" y2="18.6575" gradientUnits="userSpaceOnUse">
<stop stop-color="#A2E62E"/>
<stop offset="0.1232" stop-color="#97DF30"/>
<stop offset="0.3396" stop-color="#7ACB36"/>
<stop offset="0.6236" stop-color="#4AAC3F"/>
<stop offset="0.9613" stop-color="#09804C"/>
<stop offset="1" stop-color="#017B4E"/>
</linearGradient>
<linearGradient id="paint11_linear_68_1571" x1="21.1307" y1="13.897" x2="18.8497" y2="23.6014" gradientUnits="userSpaceOnUse">
<stop stop-color="#017B4E" stop-opacity="0"/>
<stop offset="0.477" stop-color="#01754A" stop-opacity="0.477"/>
<stop offset="1" stop-color="#026841"/>
</linearGradient>
<linearGradient id="paint12_linear_68_1571" x1="20.8773" y1="13.5471" x2="20.4196" y2="19.6462" gradientUnits="userSpaceOnUse">
<stop stop-color="#017B4E" stop-opacity="0"/>
<stop offset="0.477" stop-color="#01754A" stop-opacity="0.477"/>
<stop offset="1" stop-color="#026841"/>
</linearGradient>
<linearGradient id="paint13_linear_68_1571" x1="20.0328" y1="15.944" x2="16.3137" y2="17.6764" gradientUnits="userSpaceOnUse">
<stop stop-color="#017B4E" stop-opacity="0"/>
<stop offset="0.8532" stop-color="#026B43" stop-opacity="0.853"/>
<stop offset="1" stop-color="#026841"/>
</linearGradient>
<linearGradient id="paint14_linear_68_1571" x1="12.8835" y1="10.5027" x2="18.628" y2="16.5453" gradientUnits="userSpaceOnUse">
<stop stop-color="#A2E62E"/>
<stop offset="0.1232" stop-color="#97DF30"/>
<stop offset="0.3396" stop-color="#7ACB36"/>
<stop offset="0.6236" stop-color="#4AAC3F"/>
<stop offset="0.9613" stop-color="#09804C"/>
<stop offset="1" stop-color="#017B4E"/>
</linearGradient>
<linearGradient id="paint15_linear_68_1571" x1="12.8061" y1="10.4336" x2="24.3888" y2="21.2046" gradientUnits="userSpaceOnUse">
<stop stop-color="#017B4E" stop-opacity="0"/>
<stop offset="0.477" stop-color="#01754A" stop-opacity="0.477"/>
<stop offset="1" stop-color="#026841"/>
</linearGradient>
<linearGradient id="paint16_linear_68_1571" x1="16.7359" y1="12.3311" x2="12.7178" y2="21.1924" gradientUnits="userSpaceOnUse">
<stop stop-color="#017B4E" stop-opacity="0"/>
<stop offset="0.477" stop-color="#01754A" stop-opacity="0.477"/>
<stop offset="1" stop-color="#026841"/>
</linearGradient>
<linearGradient id="paint17_linear_68_1571" x1="18.6304" y1="2.26826" x2="21.4106" y2="3.38059" gradientUnits="userSpaceOnUse">
<stop stop-color="#FEE97D"/>
<stop offset="0.1454" stop-color="#FEE673"/>
<stop offset="0.3904" stop-color="#FDDF59"/>
<stop offset="0.7025" stop-color="#FBD32F"/>
<stop offset="1" stop-color="#FAC600"/>
</linearGradient>
<linearGradient id="paint18_linear_68_1571" x1="5.96183" y1="7.58456" x2="4.75779" y2="10.403" gradientUnits="userSpaceOnUse">
<stop stop-color="#FEE97D"/>
<stop offset="0.1454" stop-color="#FEE673"/>
<stop offset="0.3904" stop-color="#FDDF59"/>
<stop offset="0.7025" stop-color="#FBD32F"/>
<stop offset="1" stop-color="#FAC600"/>
</linearGradient>
<linearGradient id="paint19_linear_68_1571" x1="25.1594" y1="7.78135" x2="26.3696" y2="10.5965" gradientUnits="userSpaceOnUse">
<stop stop-color="#FEE97D"/>
<stop offset="0.1454" stop-color="#FEE673"/>
<stop offset="0.3904" stop-color="#FDDF59"/>
<stop offset="0.7025" stop-color="#FBD32F"/>
<stop offset="1" stop-color="#FAC600"/>
</linearGradient>
<linearGradient id="paint20_linear_68_1571" x1="12.3227" y1="2.49515" x2="9.54502" y2="3.61347" gradientUnits="userSpaceOnUse">
<stop stop-color="#FEE97D"/>
<stop offset="0.1454" stop-color="#FEE673"/>
<stop offset="0.3904" stop-color="#FDDF59"/>
<stop offset="0.7025" stop-color="#FBD32F"/>
<stop offset="1" stop-color="#FAC600"/>
</linearGradient>
<clipPath id="clip0_68_1571">
<rect width="30" height="31" fill="white" transform="translate(0.5 0.5)"/>
</clipPath>
</defs>
</svg>
